<svg xmlns="http://www.w3.org/2000/svg" version="1.1" xmlns:xlink="http://www.w3.org/1999/xlink" xmlns:svgjs="http://svgjs.dev/svgjs" viewBox="0 0 800 800" opacity="0.87"><defs><linearGradient x1="50%" y1="0%" x2="50%" y2="100%" id="ccchaos-grad"><stop stop-color="hsl(206, 75%, 49%)" stop-opacity="1" offset="0%"></stop><stop stop-color="hsl(331, 90%, 56%)" stop-opacity="1" offset="100%"></stop></linearGradient></defs><g stroke-width="2" stroke="url(#ccchaos-grad)" fill="none" stroke-linecap="round"><path d="M378.67 59.75Q386.57 66.42 394.64 73.45 402.89 80.78 411.35 88.34 420.01 96.04 428.89 103.8 438.01 111.52 447.35 119.11 456.94 126.46 466.78 133.49 476.85 140.12 487.16 146.3 497.7 151.95 508.47 157.07 519.45 161.63 530.64 165.64 542.01 169.13 553.54 172.15 565.23 174.76 577.04 177.06 588.95 179.14 600.94 181.11 612.98 183.09 625.05 185.19 637.11 187.52 649.13 190.21 661.09 193.34 672.96 197.01 684.7 201.27 696.29 206.18 707.7 211.76 718.89 218 721.77 227.97 723.44 237.95 723.84 247.92 722.96 257.89 720.83 267.87 717.52 277.84 713.14 287.81 707.84 297.78 701.8 307.76 695.23 317.73 688.34 327.7 681.37 337.68 674.56 347.65 668.14 357.62 662.32 367.6 657.31 377.57 653.26 387.54 650.32 397.52 648.6 407.49 648.14 417.46 648.96 427.44 651.03 437.41 654.29 447.38 658.62 457.36 663.88 467.33 669.89 477.3 676.45 487.28 683.33 497.25 690.29 507.22 697.12 517.2 703.17 533.59 695.87 543.95 688.67 549.02 681.16 555.24 673.35 562.57 665.22 570.97 656.79 580.31 648.05 590.47 639.01 601.26 629.68 612.49 620.08 623.95 610.2 635.41 600.08 646.63 589.73 657.41 579.16 667.51 568.41 676.77 557.48 685.01 546.42 692.13 535.23 698.02 523.94 702.66 512.59 706.04 501.19 708.22 489.77 709.3 478.36 709.4 466.97 708.71 455.63 707.42 444.36 705.77 433.18 704 422.12 702.35 411.18 701.09 400.38 700.44 389.73 700.63 382.86 691.86 375.97 684.32 362.05 673.84 347.92 667.22 333.29 666.09 318.28 667.29 302.56 670.15 286.36 672.6 269.39 672.15 251.95 668.9 242.98 665.33 233.88 660.55 224.65 654.56 215.3 647.41 205.85 639.18 196.31 630 186.7 620.01 177.02 609.41 167.29 598.39 157.53 587.18 147.74 575.99 137.95 565.03 128.17 554.52 118.4 544.64 117.3 534.57 116.09 524.51 114.8 514.44 113.49 504.37 112.2 494.31 110.96 484.24 109.83 474.17 108.84 464.11 108.03 454.04 107.41 443.98 107.02 433.91 106.87 423.84 106.96 413.78 107.28 403.71 107.83 393.64 108.6 383.58 109.54 373.51 110.63 363.44 111.84 353.38 113.12 343.31 114.44 333.25 115.73 323.18 116.97 313.11 118.11 303.05 119.1 292.98 119.93 282.92 120.55 272.85 120.95 262.78 121.12 252.72 121.04 242.65 124.95 226.47 138.04 218.48 146.81 216.74 155.46 215.03 172.36 211.01 188.9 206.03 196.97 202.74 204.93 198.9 212.79 194.47 220.56 189.43 228.25 183.8 235.86 177.6 243.42 170.89 250.93 163.74 258.41 156.22 265.88 148.44 273.36 140.49 280.85 132.48 288.39 124.51 295.98 116.69 303.64 109.1 311.4 101.83 319.27 94.95 327.26 88.51 335.39 82.55 343.69 77.07 352.15 72.08 360.79 67.56 374.15 61.61 378.67 59.75" stroke-dasharray="6 9" transform="rotate(0, 400, 400)" opacity="1.00"></path><path d="M377.6 72.08Q385.63 78.54 393.83 85.35 402.22 92.45 410.82 99.78 419.61 107.26 428.62 114.8 437.84 122.33 447.28 129.74 456.93 136.96 466.8 143.91 476.87 150.5 487.15 156.67 497.61 162.37 508.26 167.56 519.08 172.23 530.05 176.37 541.16 179.99 552.39 183.14 563.72 185.85 575.13 188.21 586.59 190.28 598.08 192.17 609.58 193.97 621.07 195.79 632.51 197.74 643.88 199.92 655.16 202.43 666.32 205.37 677.33 208.81 688.18 212.8 698.83 217.41 709.26 222.65 711.31 232.21 712.23 241.77 711.98 251.33 710.57 260.89 708.04 270.45 704.49 280.01 700 289.57 694.74 299.13 688.85 308.69 682.54 318.25 675.98 327.81 669.4 337.37 662.99 346.93 656.95 356.49 651.49 366.05 646.75 375.62 642.91 385.18 640.06 394.74 638.31 404.3 637.71 413.86 638.28 423.42 640 432.98 642.81 442.54 646.63 452.1 651.34 461.66 656.8 471.22 662.82 480.78 669.22 490.34 675.8 499.91 682.36 509.47 688.57 525.82 682.07 537.67 675.44 543.78 668.54 550.9 661.38 558.97 653.95 567.92 646.23 577.6 638.24 587.86 629.98 598.55 621.44 609.47 612.63 620.41 603.58 631.19 594.27 641.6 584.74 651.45 574.98 660.58 565.03 668.84 554.89 676.1 544.58 682.28 534.13 687.32 523.55 691.21 512.87 693.98 502.11 695.68 491.29 696.41 480.42 696.31 469.54 695.54 458.66 694.28 447.8 692.73 436.98 691.12 426.23 689.65 415.55 688.56 404.97 688.05 394.5 688.3 387.93 679.9 381.31 672.61 367.79 662.22 353.98 655.39 339.56 653.7 324.72 654.3 309.15 656.82 293.12 659.26 276.34 659.57 259.14 657.56 250.31 654.9 241.37 651.16 232.31 646.31 223.16 640.37 213.93 633.38 204.62 625.41 195.25 616.59 185.83 607.04 176.38 596.93 166.91 586.43 157.43 575.74 147.95 565.05 138.49 554.55 129.05 544.42 127.83 534.66 126.52 524.91 125.16 515.16 123.8 505.41 122.47 495.66 121.23 485.91 120.1 476.16 119.12 466.41 118.33 456.66 117.75 446.9 117.39 437.15 117.28 427.4 117.4 417.65 117.76 407.9 118.35 398.15 119.15 388.4 120.13 378.65 121.26 368.9 122.51 359.15 123.84 349.39 125.2 339.64 126.56 329.89 127.86 320.14 129.08 310.39 130.17 300.64 131.1 290.89 131.84 281.14 132.36 271.39 132.65 261.64 132.7 251.89 136.65 236.42 149.4 229.13 166.25 225.78 182.77 221.79 198.73 215.85 214.34 208.36 221.96 203.62 229.48 198.32 236.91 192.48 244.25 186.13 251.52 179.33 258.73 172.16 265.89 164.7 273.02 157.03 280.12 149.26 287.21 141.48 294.31 133.78 301.44 126.25 308.61 118.99 315.84 112.05 323.14 105.49 330.53 99.36 338.02 93.69 345.64 88.49 353.39 83.76 361.3 79.47 373.48 73.83 377.6 72.08" stroke-dasharray="8 1" transform="rotate(4.04, 400, 400)" opacity="0.96"></path><path d="M377.68 84.4Q385.82 90.65 394.14 97.24 402.65 104.1 411.34 111.19 420.22 118.43 429.29 125.75 438.56 133.07 448.01 140.31 457.65 147.39 467.47 154.22 477.45 160.75 487.6 166.9 497.91 172.63 508.35 177.89 518.91 182.66 529.58 186.93 540.35 190.7 551.19 193.99 562.09 196.84 573.02 199.29 583.96 201.43 594.9 203.31 605.82 205.02 616.68 206.67 627.47 208.34 638.16 210.13 648.74 212.13 659.17 214.45 669.45 217.16 679.55 220.33 694.93 230.74 700.64 246.62 699.81 255.79 697.94 264.96 695.1 274.13 691.35 283.3 686.82 292.47 681.63 301.64 675.93 310.81 669.88 319.98 663.66 329.15 657.46 338.32 651.44 347.49 645.78 356.66 640.65 365.82 636.2 374.99 632.55 384.16 629.8 393.33 628.04 402.5 627.32 411.67 627.66 420.84 629.05 430.01 631.45 439.18 634.78 448.35 638.96 457.52 643.86 466.69 649.35 475.86 655.25 485.02 661.41 494.19 667.64 503.36 673.84 519.67 668 532.87 661.89 539.84 655.55 547.67 648.99 556.27 642.18 565.53 635.13 575.32 627.83 585.49 620.28 595.88 612.49 606.31 604.45 616.61 596.17 626.61 587.66 636.14 578.92 645.04 569.97 653.18 560.81 660.46 551.46 666.77 541.94 672.07 532.25 676.32 522.41 679.54 512.45 681.75 502.38 683.03 492.21 683.47 481.97 683.21 471.68 682.38 461.34 681.16 450.99 679.72 440.63 678.27 430.3 676.98 419.99 676.05 409.74 675.66 399.54 675.98 393.18 667.93 386.73 660.91 373.46 650.65 359.84 643.64 345.55 641.44 330.83 641.45 315.38 643.57 299.5 645.89 282.93 646.74 265.99 645.77 257.32 643.89 248.54 641.08 239.68 637.28 230.74 632.48 221.73 626.69 212.67 619.94 203.56 612.32 194.42 603.91 185.26 594.84 176.09 585.26 166.92 575.3 157.76 565.14 148.63 554.94 139.53 544.88 138.21 535.44 136.82 526 135.41 516.56 134.01 507.12 132.68 497.68 131.44 488.24 130.32 478.81 129.38 469.37 128.62 459.93 128.08 450.49 127.77 441.05 127.69 431.61 127.85 422.17 128.25 412.73 128.87 403.3 129.7 393.86 130.71 384.42 131.87 374.98 133.15 365.54 134.51 356.1 135.92 346.66 137.33 337.22 138.7 327.78 139.99 318.34 141.16 308.91 142.19 299.47 143.04 290.03 143.68 280.59 144.11 271.15 144.3 261.71 148.31 246.85 160.73 239.99 177.08 236.51 193.12 232.12 208.62 225.54 223.79 217.4 231.19 212.38 238.48 206.84 245.68 200.82 252.78 194.36 259.8 187.52 266.74 180.37 273.62 173 280.44 165.49 287.22 157.93 293.96 150.4 300.69 143 307.42 135.79 314.15 128.86 320.91 122.25 327.71 116.03 334.57 110.22 348.55 100.15 362.84 91.39 373.93 86.06 377.68 84.4" stroke-dasharray="6 5" transform="rotate(8.08, 400, 400)" opacity="0.92"></path><path d="M378.9 96.73Q387.13 102.77 395.52 109.13 404.09 115.75 412.82 122.59 421.73 129.59 430.79 136.67 440.02 143.77 449.41 150.82 458.95 157.73 468.63 164.45 478.44 170.89 488.38 177.01 498.42 182.75 508.57 188.06 518.79 192.92 529.09 197.31 539.43 201.23 549.81 204.68 560.21 207.69 570.61 210.28 580.99 212.52 591.33 214.47 601.61 216.18 611.81 217.74 621.92 219.24 631.92 220.75 641.78 222.38 651.49 224.2 661.04 226.3 670.4 228.75 684.33 237.7 688.7 252.57 687.36 261.37 685.11 270.17 682.01 278.96 678.14 287.76 673.6 296.56 668.52 305.36 663.02 314.15 657.26 322.95 651.39 331.75 645.56 340.54 639.92 349.34 634.63 358.14 629.83 366.93 625.65 375.73 622.19 384.53 619.54 393.32 617.78 402.12 616.96 410.92 617.09 419.71 618.17 428.51 620.18 437.31 623.06 446.1 626.73 454.9 631.1 463.7 636.04 472.49 641.44 481.29 647.15 490.09 653 498.88 659.05 515.11 653.75 529.41 648.09 537.04 642.25 545.35 636.22 554.24 629.98 563.6 623.53 573.28 616.87 583.16 609.99 593.08 602.89 602.89 595.57 612.44 588.03 621.58 580.27 630.17 572.3 638.11 564.12 645.28 555.74 651.6 547.18 657.02 538.43 661.5 529.51 665.03 520.44 667.63 511.22 669.36 501.88 670.27 492.42 670.47 482.86 670.08 473.21 669.22 463.49 668.06 453.72 666.74 443.92 665.44 434.09 664.32 424.25 663.55 414.42 663.28 404.62 663.65 398.37 655.96 392.01 649.19 378.87 639.1 365.35 631.96 351.14 629.27 336.5 628.72 321.17 630.39 305.45 632.49 289.11 633.72 272.45 633.56 263.95 632.35 255.37 630.35 246.72 627.49 238.01 623.74 229.25 619.08 220.44 613.52 211.61 607.09 202.76 599.87 193.9 591.94 185.05 583.39 176.2 574.35 167.38 564.95 158.59 555.32 149.84 545.62 148.43 536.5 146.99 527.38 145.54 518.25 144.14 509.13 142.81 500 141.59 490.88 140.51 481.76 139.6 472.63 138.89 463.51 138.4 454.38 138.13 445.26 138.1 436.14 138.3 427.01 138.74 417.89 139.39 408.76 140.24 399.64 141.27 390.51 142.46 381.39 143.76 372.27 145.15 363.14 146.59 354.02 148.04 344.89 149.46 335.77 150.81 326.64 152.07 317.52 153.18 308.4 154.14 299.27 154.9 290.15 155.46 281.02 155.79 271.9 159.9 257.55 171.99 250.87 187.85 247.01 203.42 242.05 218.49 234.79 233.23 226 240.42 220.73 247.51 215 254.49 208.84 261.38 202.31 268.17 195.47 274.88 188.4 281.51 181.17 288.08 173.85 294.58 166.53 301.03 159.29 307.44 152.2 313.82 145.33 320.18 138.74 326.54 132.47 339.32 121.31 352.21 111.39 372.16 100.12 378.9 96.73" stroke-dasharray="4 2" transform="rotate(12.12, 400, 400)" opacity="0.89"></path><path d="M381.2 109.05Q397.87 121 415.13 133.96 432.96 147.55 451.3 161.26 470.11 174.56 489.29 186.97 508.76 198.04 528.42 207.49 548.13 215.16 567.79 221.1 587.26 225.55 606.41 228.9 625.11 231.68 643.25 234.51 660.72 238 677.43 242.73 676.42 259.61 672.09 276.49 664.86 293.38 655.42 310.26 644.69 327.14 633.7 344.02 623.5 360.91 615.09 377.79 609.28 394.67 606.62 411.56 607.38 428.44 611.47 445.32 618.51 462.2 627.82 479.09 638.49 495.97 649.5 512.85 639.38 527.13 628.72 543.74 617.43 561.92 605.44 580.72 592.7 599.09 579.18 616.03 564.89 630.65 549.82 642.29 534.03 650.59 517.57 655.53 500.51 657.43 482.93 656.95 464.93 655 446.61 652.65 428.08 651.07 409.45 651.32 396.93 637.49 383.91 627.14 370.35 620.36 356.26 616.9 341.64 616.14 326.51 617.24 310.91 619.14 294.89 620.74 278.51 621.01 261.85 619.04 244.97 614.19 227.95 606.12 210.87 594.83 193.81 580.65 176.83 564.2 159.99 546.3 157.05 528.69 154.19 511.09 151.71 493.48 149.83 475.87 148.73 458.27 148.53 440.66 149.24 423.05 150.79 405.45 153.04 387.84 155.77 370.23 158.71 352.62 161.57 335.02 164.1 317.41 166.03 299.8 167.19 282.19 167.46 264.59 183.17 261.56 198.58 257.33 213.64 251.48 228.33 243.76 242.62 234.13 256.5 222.76 269.98 209.98 283.09 196.25 295.84 182.11 308.31 168.13 320.54 154.85 332.62 142.7 344.64 131.98 356.67 122.85 375.01 112.16 381.2 109.05" stroke-dasharray="5 10" transform="rotate(16.16, 400, 400)" opacity="0.85"></path><path d="M384.46 121.38Q401.04 132.86 418.1 145.31 435.61 158.38 453.5 171.62 471.71 184.58 490.17 196.78 508.78 207.83 527.43 217.43 546.03 225.39 564.47 231.7 582.64 236.49 600.42 240.05 617.73 242.8 634.46 245.26 650.53 247.97 665.87 251.48 663.84 267.68 658.91 283.88 651.53 300.07 642.35 316.27 632.16 332.47 621.88 348.67 612.39 364.86 604.54 381.06 599.02 397.26 596.31 413.45 596.65 429.65 600.02 445.85 606.11 462.05 614.38 478.24 624.12 494.44 634.46 510.64 624.95 525.8 615.03 542.6 604.61 560.29 593.62 577.99 582 594.8 569.71 609.91 556.74 622.65 543.08 632.53 528.75 639.37 513.77 643.25 498.2 644.53 482.09 643.83 465.51 641.97 448.55 639.9 431.28 638.6 413.8 639 401.28 625.8 388.26 615.71 374.72 608.84 360.68 605.01 346.17 603.73 331.2 604.3 315.85 605.85 300.14 607.46 284.16 608.18 267.96 607.2 251.61 603.87 235.18 597.76 218.74 588.71 202.36 576.87 186.09 562.6 169.99 546.51 167 529.57 164.19 512.62 161.8 495.68 160.04 478.73 159.07 461.79 158.97 444.84 159.75 427.9 161.35 410.96 163.61 394.01 166.35 377.07 169.32 360.12 172.26 343.18 174.92 326.23 177.05 309.29 178.47 292.34 179.06 275.39 194.23 271.87 209.14 266.93 223.74 260.31 238 251.91 251.89 241.79 265.4 230.16 278.52 217.39 291.26 203.93 303.64 190.28 315.7 176.94 327.47 164.37 339.02 152.94 350.42 142.88 361.74 134.32 378.76 124.29 384.46 121.38" stroke-dasharray="8 9" transform="rotate(20.200000000000003, 400, 400)" opacity="0.81"></path><path d="M388.52 133.7Q404.84 144.71 421.52 156.64 438.53 169.17 455.81 181.93 473.27 194.49 490.85 206.45 508.46 217.43 526.01 227.13 543.42 235.36 560.58 242.03 577.41 247.21 593.83 251.1 609.75 253.99 625.1 256.31 639.82 258.53 653.87 261.13 650.97 276.66 645.59 292.19 638.17 307.72 629.3 323.25 619.68 338.78 610.09 354.31 601.3 369.83 593.99 385.36 588.76 400.89 586.03 416.42 586 431.95 588.69 447.48 593.88 463 601.16 478.53 609.94 494.06 619.52 509.59 610.53 525.13 601.24 541.67 591.58 558.48 581.48 574.81 570.86 589.92 559.69 603.17 547.93 614.07 535.57 622.32 522.61 627.85 509.05 630.8 494.93 631.56 480.28 630.71 465.14 628.98 449.58 627.18 433.66 626.15 417.44 626.68 404.89 614.1 391.85 604.3 378.35 597.39 364.4 593.24 350.04 591.46 335.3 591.51 320.24 592.66 304.92 594.14 289.38 595.14 273.7 594.92 257.94 592.84 242.15 588.44 226.39 581.48 210.72 571.91 195.19 559.92 179.84 545.9 176.86 529.65 174.13 513.4 171.86 497.14 170.25 480.89 169.41 464.63 169.42 448.38 170.27 432.12 171.9 415.87 174.17 399.61 176.91 383.36 179.89 367.1 182.88 350.85 185.64 334.59 187.94 318.34 189.62 302.08 190.52 285.82 205.15 281.6 219.55 275.87 233.68 268.5 247.51 259.48 261.01 248.96 274.16 237.2 286.93 224.57 299.34 211.48 311.39 198.39 323.09 185.74 334.49 173.91 345.61 163.2 356.52 153.8 367.26 145.8 383.21 136.43 388.52 133.7" stroke-dasharray="11 10" transform="rotate(24.24, 400, 400)" opacity="0.77"></path><path d="M393.17 146.02Q409.05 156.55 425.19 167.95 441.53 179.93 458.02 192.18 474.59 204.32 491.17 215.98 507.68 226.83 524.05 236.59 540.2 245.03 556.06 252.05 571.55 257.64 586.61 261.92 601.17 265.11 615.2 267.51 628.64 269.5 641.46 271.52 637.84 286.39 632.15 301.26 624.78 316.12 616.28 330.99 607.26 345.86 598.35 360.73 590.22 375.6 583.44 390.46 578.5 405.33 575.76 420.2 575.42 435.07 577.5 449.93 581.85 464.8 588.15 479.67 595.96 494.53 604.71 509.4 596.18 524.83 587.45 540.67 578.45 556.29 569.11 571.05 559.38 584.37 549.2 595.78 538.54 604.95 527.37 611.69 515.67 616.05 503.45 618.21 490.71 618.55 477.47 617.62 463.75 616.03 449.61 614.5 435.07 613.72 420.19 614.36 407.61 602.41 394.59 592.93 381.17 586.02 367.37 581.59 353.22 579.36 338.78 578.89 324.1 579.61 309.22 580.86 294.2 581.97 279.1 582.28 263.97 581.19 248.86 578.25 233.83 573.13 218.9 565.7 204.14 555.98 189.55 544.18 186.63 528.65 184.03 513.11 181.92 497.58 180.47 482.05 179.77 466.51 179.89 450.98 180.8 435.45 182.45 419.91 184.71 404.38 187.43 388.85 190.4 373.31 193.42 357.78 196.26 342.24 198.72 326.71 200.62 311.17 201.83 295.64 215.9 290.6 229.78 284.07 243.43 275.99 256.83 266.47 269.92 255.68 282.7 243.92 295.14 231.54 307.23 218.92 318.97 206.46 330.38 194.54 341.46 183.46 352.24 173.48 362.75 164.75 373.05 157.31 388.17 148.57 393.17 146.02" stroke-dasharray="1 9" transform="rotate(28.28, 400, 400)" opacity="0.73"></path><path d="M398.16 158.34Q413.44 168.39 428.86 179.23 444.39 190.65 459.96 202.36 475.51 214.04 490.98 225.36 506.32 236.03 521.45 245.77 536.31 254.37 550.85 261.7 565.02 267.71 578.75 272.43 592.02 276.02 604.77 278.67 616.99 280.7 628.66 282.44 624.5 296.64 618.61 310.85 611.4 325.05 603.31 339.26 594.88 353.46 586.66 367.67 579.16 381.87 572.89 396.08 568.24 410.28 565.52 424.49 564.9 438.69 566.43 452.9 570 467.11 575.38 481.31 582.23 495.52 590.1 509.72 581.96 524.58 573.71 539.37 565.28 553.54 556.62 566.59 547.66 578.1 538.35 587.73 528.67 595.28 518.56 600.67 508.02 604 497.03 605.5 485.58 605.52 473.67 604.55 461.33 603.13 448.57 601.85 435.41 601.3 421.9 602.03 409.34 590.72 396.41 581.58 383.13 574.71 369.55 570.07 355.71 567.43 341.66 566.47 327.42 566.73 313.07 567.67 298.64 568.74 284.18 569.37 269.74 569.02 255.35 567.26 241.07 563.74 226.93 558.23 212.95 550.67 199.16 541.11 196.34 526.33 193.89 511.55 191.97 496.77 190.69 481.99 190.15 467.21 190.37 452.43 191.34 437.65 193 422.87 195.25 408.09 197.93 393.31 200.87 378.53 203.89 363.75 206.78 348.97 209.36 334.19 211.47 319.41 212.96 304.63 226.46 298.74 239.8 291.44 252.96 282.76 265.9 272.87 278.58 261.97 290.97 250.35 303.07 238.33 314.85 226.28 326.31 214.51 337.43 203.35 348.24 193.04 358.74 183.8 368.95 175.71 378.9 168.83 393.39 160.71 398.16 158.34" stroke-dasharray="1 7" transform="rotate(32.32, 400, 400)" opacity="0.70"></path><path d="M403.25 170.68Q417.76 180.22 432.32 190.51 446.89 201.35 461.43 212.5 475.87 223.68 490.17 234.61 504.28 245.03 518.14 254.69 531.72 263.39 544.96 270.97 557.82 277.36 570.28 282.54 582.29 286.59 593.85 289.64 607.94 299.54 605.01 320.7 598.02 334.24 590.39 347.77 582.56 361.31 575 374.84 568.12 388.38 562.34 401.91 557.98 415.45 555.3 428.98 554.45 442.51 555.48 456.05 558.33 469.58 562.84 483.12 568.75 496.65 575.71 510.19 567.92 524.08 560.09 537.51 552.16 550.05 544.08 561.34 535.79 571.06 527.25 579.01 518.42 585.07 509.26 589.27 499.75 591.73 489.87 592.68 479.6 592.47 468.94 591.51 457.89 590.26 446.46 589.23 434.65 588.89 422.49 589.7 410.03 579.02 397.26 570.24 384.23 563.46 370.98 558.66 357.54 555.67 343.95 554.25 330.25 554.03 316.5 554.61 302.72 555.52 288.96 556.28 275.26 556.44 261.64 555.58 248.15 553.37 234.81 549.54 221.65 543.94 208.67 536.53 206.01 522.54 203.75 508.54 202.02 494.55 200.93 480.55 200.54 466.56 200.86 452.57 201.89 438.57 203.55 424.58 205.77 410.59 208.4 396.59 211.29 382.6 214.28 368.61 217.2 354.61 219.87 340.62 222.15 326.63 223.89 312.64 236.81 305.93 249.6 297.96 262.24 288.83 274.69 278.72 286.93 267.87 298.94 256.53 310.68 245 322.13 233.58 333.3 222.56 344.16 212.19 354.72 202.67 364.97 194.15 374.94 186.72 384.62 180.37 398.65 172.87 403.25 170.68" stroke-dasharray="9 2" transform="rotate(36.36, 400, 400)" opacity="0.66"></path><path d="M408.18 183Q421.77 192.04 435.35 201.76 448.86 212.01 462.27 222.57 475.54 233.22 488.62 243.72 501.48 253.83 514.08 263.34 526.38 272.06 538.35 279.82 549.96 286.54 561.2 292.16 572.04 296.69 582.47 300.23 594.88 310.3 591.36 330.55 584.66 343.4 577.52 356.25 570.3 369.1 563.38 381.94 557.1 394.79 551.78 407.64 547.71 420.49 545.09 433.33 544.05 446.18 544.65 459.03 546.85 471.88 550.55 484.73 555.55 497.57 561.59 510.42 554.12 523.02 546.66 534.89 539.17 545.71 531.59 555.23 523.88 563.24 516 569.64 507.92 574.38 499.59 577.54 490.99 579.27 482.1 579.8 472.9 579.42 463.37 578.51 453.51 577.45 443.31 576.65 432.79 576.5 421.93 577.38 409.67 567.33 397.18 558.94 384.51 552.29 371.68 547.38 358.73 544.09 345.71 542.24 332.64 541.57 319.55 541.74 306.5 542.39 293.49 543.13 280.58 543.57 267.77 543.35 255.11 542.15 242.6 539.7 230.26 535.81 218.11 530.37 215.64 517.2 213.6 504.02 212.09 490.84 211.2 477.66 210.95 464.48 211.38 451.31 212.45 438.13 214.11 424.95 216.27 411.77 218.84 398.6 221.66 385.42 224.61 372.24 227.52 359.07 230.25 345.89 232.66 332.71 234.63 319.53 246.93 312.12 259.14 303.63 271.24 294.23 283.19 284.08 294.96 273.42 306.54 262.5 317.89 251.56 329.01 240.87 339.86 230.64 350.45 221.08 360.76 212.34 370.79 204.55 380.54 197.74 390.01 191.93 403.7 185.02 408.18 183" stroke-dasharray="3 11" transform="rotate(40.400000000000006, 400, 400)" opacity="0.62"></path><path d="M412.68 195.32Q425.25 203.85 437.75 213 450.13 222.64 462.36 232.6 474.42 242.68 486.27 252.7 497.88 262.45 509.23 271.74 520.29 280.38 531.05 288.25 541.47 295.22 551.56 301.22 561.3 306.24 570.68 310.29 581.58 320.71 577.68 340.11 571.34 352.25 564.71 364.39 558.1 376.53 551.8 388.67 546.09 400.81 541.23 412.95 537.45 425.09 534.9 437.23 533.71 449.37 533.93 461.51 535.55 473.65 538.5 485.79 542.63 497.93 547.78 510.07 540.6 521.14 533.48 531.33 526.37 540.41 519.23 548.21 504.65 558.93 489.67 565.52 473.73 566.52 457.07 565.56 448.29 564.69 439.22 564.1 429.88 564.13 420.25 565.06 408.31 555.64 396.22 547.66 384.02 541.18 371.73 536.21 359.38 532.68 347.01 530.46 334.64 529.34 322.3 529.08 310.02 529.4 297.83 529.99 285.74 530.52 273.78 530.7 261.96 530.23 250.3 528.86 238.82 526.38 227.51 522.66 225.27 510.32 223.47 497.98 222.19 485.64 221.49 473.31 221.39 460.97 221.91 448.63 223.01 436.3 224.66 423.96 226.77 411.63 229.25 399.29 231.99 386.95 234.86 374.62 237.74 362.28 240.5 349.95 243 337.61 245.15 325.27 256.82 317.31 268.43 308.5 279.95 299.01 291.36 289.01 302.63 278.72 313.75 268.34 324.68 258.09 335.42 248.17 345.94 238.76 356.23 230.02 366.27 222.07 376.07 214.99 385.61 208.8 394.88 203.5 408.29 197.18 412.68 195.32" stroke-dasharray="4 8" transform="rotate(44.44, 400, 400)" opacity="0.58"></path><path d="M416.53 207.65Q428 215.65 439.35 224.22 450.56 233.24 461.59 242.58 472.43 252.07 483.06 261.57 493.46 270.89 503.6 279.87 513.48 288.36 523.08 296.23 532.39 303.36 541.4 309.67 550.11 315.12 558.53 319.68 568.1 330.55 564 349.11 558.07 360.52 551.98 371.93 545.96 383.33 540.26 394.74 535.1 406.15 530.68 417.55 527.18 428.96 524.73 440.37 523.42 451.78 523.32 463.18 524.43 474.59 526.69 486 530.03 497.41 534.3 508.81 527.41 518.23 520.6 526.7 513.83 534.08 507.08 540.29 493.47 548.47 479.64 553.23 465.18 553.65 450.2 552.66 434.2 551.87 417.53 552.73 406.05 543.95 394.49 536.4 382.87 530.13 371.22 525.16 359.57 521.45 347.93 518.9 336.34 517.37 324.81 516.69 313.37 516.63 302.03 516.96 290.8 517.43 279.71 517.79 268.77 517.78 257.98 517.18 247.35 515.8 236.89 513.47 234.91 502 233.37 490.52 232.32 479.04 231.81 467.57 231.86 456.09 232.46 444.62 233.59 433.14 235.21 421.66 237.25 410.19 239.64 398.71 242.27 387.24 245.05 375.76 247.87 364.29 250.61 352.81 253.17 341.34 255.45 329.86 266.46 321.56 277.43 312.65 288.35 303.27 299.19 293.6 309.92 283.82 320.54 274.09 331.01 264.61 341.33 255.51 351.47 246.95 361.42 239.05 371.16 231.87 380.7 225.48 390 219.9 399.08 215.1 412.23 209.34 416.53 207.65" stroke-dasharray="10 2" transform="rotate(48.48, 400, 400)" opacity="0.54"></path><path d="M419.54 219.97Q429.86 227.44 440.03 235.42 450.05 243.81 459.89 252.51 469.54 261.39 478.99 270.32 488.21 279.15 497.21 287.76 505.97 296.01 514.48 303.78 522.75 310.96 530.77 317.48 545.95 327.9 560.41 336.01 555.59 346.66 550.35 357.31 544.86 367.96 539.31 378.6 533.88 389.25 528.76 399.9 524.13 410.55 520.13 421.2 516.9 431.85 514.56 442.5 513.19 453.15 512.82 463.8 513.47 474.45 515.13 485.1 517.73 495.75 521.18 506.39 514.57 514.12 508.06 520.91 495.24 530.95 482.49 537.93 469.6 540.41 456.5 540.91 442.84 539.87 428.75 539.12 421.42 539.42 413.91 540.41 403.02 532.27 392.11 525.16 381.19 519.14 370.28 514.22 359.41 510.39 348.59 507.58 337.84 505.69 327.17 504.6 316.61 504.15 306.15 504.15 295.82 504.43 285.62 504.77 275.56 504.99 265.65 504.88 250.24 498.34 243.31 481.8 242.5 471.2 242.18 460.6 242.36 449.99 243.03 439.39 244.18 428.79 245.76 418.19 247.73 407.58 250 396.98 252.51 386.38 255.18 375.78 257.9 365.17 260.6 354.57 263.17 343.97 265.53 333.37 275.86 324.97 286.17 316.17 296.44 307.11 306.67 297.94 316.82 288.8 326.89 279.83 336.85 271.17 346.7 262.94 356.41 255.24 365.97 248.15 375.37 241.74 384.59 236.03 393.62 231.03 402.47 226.72 415.32 221.51 419.54 219.97" stroke-dasharray="4 4" transform="rotate(52.52, 400, 400)" opacity="0.51"></path><path d="M421.55 232.29Q430.7 239.23 439.71 246.61 448.56 254.37 457.24 262.41 465.74 270.65 474.06 278.97 482.18 287.26 490.1 295.42 497.81 303.34 505.33 310.9 512.64 318.03 519.74 324.63 533.26 335.69 546.22 344.77 541.62 354.63 536.74 364.5 531.73 374.37 526.72 384.23 521.87 394.1 517.31 403.96 513.17 413.83 509.57 423.7 506.63 433.56 504.41 443.43 502.99 453.29 502.41 463.16 502.69 473.02 503.81 482.89 503.93 500.72 495.91 513.93 483.75 521.39 471.74 526.35 459.77 527.85 447.72 527.94 435.36 527.11 422.73 526.68 416.22 527.09 409.58 528.09 399.41 520.58 389.25 513.94 379.13 508.2 369.05 503.39 359.03 499.5 349.09 496.49 339.23 494.3 329.47 492.83 319.81 491.99 310.27 491.63 300.85 491.62 291.56 491.81 282.4 492.04 273.37 492.17 259.4 486.91 253.31 472.06 252.73 462.33 252.59 452.61 252.89 442.89 253.63 433.17 254.78 423.44 256.31 413.72 258.19 404 260.34 394.27 262.71 384.55 265.24 374.83 267.85 365.1 270.46 355.38 273 345.66 275.39 335.93 285.01 327.68 294.62 319.22 304.22 310.67 313.8 302.14 323.33 293.76 332.8 285.62 342.2 277.83 351.52 270.49 360.74 263.65 369.85 257.37 378.84 251.7 387.69 246.64 396.4 242.2 404.95 238.36 417.44 233.68 421.55 232.29" stroke-dasharray="5 5" transform="rotate(56.56, 400, 400)" opacity="0.47"></path><path d="M422.45 244.62Q438.34 257.79 453.64 272.28 468.31 287.54 482.32 302.89 495.68 317.64 508.38 331.14 520.45 342.86 531.96 352.43 523.2 370.54 514.22 388.66 505.89 406.78 499.02 424.89 494.27 443.01 492.1 461.12 492.72 479.24 496.06 497.35 484.17 505.77 472.64 511.35 461.36 514.36 450.21 515.32 439.08 515.01 427.86 514.33 416.45 514.27 404.75 515.75 386.1 502.72 367.68 492.66 349.56 485.64 331.8 481.41 314.46 479.47 297.58 479.05 281.17 479.29 265.23 479.24 263.39 461.56 263.05 443.87 264.25 426.19 266.87 408.5 270.65 390.81 275.25 373.13 280.2 355.44 285.03 337.75 302.81 321.96 320.58 306.32 338.28 291.54 355.8 278.19 373.07 266.71 389.98 257.33 414.46 247.33 422.45 244.62" stroke-dasharray="8 8" transform="rotate(60.599999999999994, 400, 400)" opacity="0.43"></path><path d="M422.2 256.95Q435.92 268.95 449.13 282.12 461.82 296.02 473.98 310.15 485.62 324 496.76 337.02 507.43 348.77 517.69 358.87 509.74 375.33 501.8 391.8 494.52 408.27 488.47 424.73 484.14 441.2 481.88 457.66 481.86 474.13 484.08 490.59 472.87 496.51 462.01 500.23 451.42 502.06 441.03 502.49 430.74 502.14 420.47 501.7 410.14 501.91 399.68 503.43 382.87 491.53 366.33 482.04 350.12 475.02 334.26 470.37 318.8 467.74 303.74 466.66 289.1 466.5 274.86 466.59 273.56 450.65 273.57 434.7 274.89 418.76 277.42 402.82 280.95 386.87 285.2 370.93 289.83 354.98 294.48 339.04 310.74 324.56 327.05 310.59 343.35 297.63 359.56 286.07 375.62 276.17 391.46 268.07 414.6 259.34 422.2 256.95" stroke-dasharray="8 2" transform="rotate(64.64, 400, 400)" opacity="0.39"></path><path d="M420.81 269.27Q432.51 280.11 443.8 291.93 454.67 304.44 465.15 317.27 475.23 330.04 484.96 342.33 494.35 353.78 503.46 364.07 496.38 378.86 489.48 393.64 483.19 408.43 477.92 423.22 474.02 438 471.73 452.79 471.21 467.58 472.49 482.37 462.02 486.25 451.87 488.53 441.99 489.52 432.33 489.64 422.82 489.34 413.41 489.15 404.03 489.58 394.63 491.11 379.76 480.36 365.17 471.51 350.89 464.64 336.95 459.7 323.35 456.5 310.1 454.74 297.19 454.02 284.62 453.87 283.83 439.65 284.15 425.42 285.56 411.2 287.97 396.97 291.22 382.75 295.11 368.53 299.37 354.3 303.74 340.08 318.44 327.22 333.22 315.08 348.03 303.98 362.83 294.16 377.56 285.78 392.17 278.9 413.71 271.36 420.81 269.27" stroke-dasharray="1 9" transform="rotate(68.68, 400, 400)" opacity="0.35"></path><path d="M418.36 281.59Q428.21 291.25 437.76 301.73 447 312.82 455.95 324.27 464.62 335.8 473.06 347.13 481.27 357.97 489.29 368.08 483.14 381.17 477.24 394.26 471.89 407.35 467.37 420.44 463.9 433.53 461.66 446.62 460.78 459.72 461.29 472.81 451.62 475.13 442.24 476.39 433.11 476.85 424.2 476.82 406.89 476.96 389.86 478.79 376.97 469.2 364.35 461.07 352.01 454.49 339.96 449.43 328.19 445.8 316.7 443.42 299.86 435.49 294.8 416.37 296.26 403.84 298.52 391.3 301.48 378.76 304.97 366.23 308.82 353.69 312.83 341.16 325.93 330.14 339.12 319.9 352.38 310.64 365.66 302.5 378.94 295.55 392.18 289.79 411.85 283.39 418.36 281.59" stroke-dasharray="10 5" transform="rotate(72.72, 400, 400)" opacity="0.32"></path><path d="M414.97 293.92Q423.16 302.39 431.14 311.51 438.91 321.16 446.48 331.17 453.89 341.35 461.13 351.51 468.24 361.45 475.24 370.99 470.04 382.38 465.11 393.77 460.64 405.16 456.82 416.55 453.78 427.94 451.66 439.33 446.11 457.03 433.15 463.94 416.78 464.08 400.92 464.29 393.21 465.03 385.6 466.46 374.7 458.04 364.02 450.72 353.58 444.55 343.36 439.54 333.37 435.65 323.6 432.79 309.4 424.79 305.52 407.87 306.99 396.98 309.08 386.1 311.71 375.22 314.79 364.34 318.19 353.46 321.78 342.57 333.24 333.49 344.8 325.16 356.44 317.67 368.13 311.1 379.86 305.48 391.59 300.78 409.13 295.43 414.97 293.92" stroke-dasharray="3 8" transform="rotate(76.76, 400, 400)" opacity="0.28"></path><path d="M410.81 306.24Q417.52 313.51 424.1 321.29 430.55 329.5 436.89 338.02 443.12 346.76 449.27 355.58 455.34 364.36 461.35 372.98 457.08 382.68 453.07 392.37 449.42 402.07 446.26 411.76 443.67 421.46 441.72 431.15 436.32 445.97 424.58 451.33 409.95 451.49 395.75 452 380.99 449.85 364.32 440.45 355.7 434.82 347.25 430.03 330.92 423.28 315.04 418.72 315.41 409.45 316.32 400.19 317.74 390.93 319.63 381.66 321.93 372.4 324.58 363.13 327.5 353.87 330.61 344.6 340.41 337.46 350.31 330.95 360.28 325.12 370.31 320 380.4 315.58 390.52 311.85 405.74 307.5 410.81 306.24" stroke-dasharray="9 7" transform="rotate(80.80000000000001, 400, 400)" opacity="0.24"></path><path d="M406.09 318.57Q416.82 331.08 427.28 344.86 437.53 359.44 447.65 374.27 441.13 390.3 435.71 406.32 431.83 422.35 429.8 438.38 416.53 438.72 403.75 438.97 391.42 439.79 379.48 441.81 365.33 430.25 351.67 420.9 338.45 413.84 325.64 408.94 327.2 393.58 330.18 378.22 334.34 362.86 339.35 347.5 355.69 337.36 372.3 329.2 389.12 323.01 406.09 318.57 406.09 318.57 406.09 318.57" stroke-dasharray="7 7" transform="rotate(84.84, 400, 400)" opacity="0.20"></path><path d="M401.07 330.89Q409.48 340.86 417.78 351.72 426 363.22 434.18 375.11 429.29 387.83 425.16 400.54 421.99 413.26 419.95 425.97 408.97 426.23 398.32 426.69 387.98 427.68 377.93 429.49 367.16 420.12 356.68 412.13 346.47 405.58 336.51 400.45 338.17 388.21 340.73 375.96 344.08 363.72 348.03 351.47 361.01 344.45 374.19 338.73 394.31 332.57 401.07 330.89" stroke-dasharray="2 6" transform="rotate(88.88, 400, 400)" opacity="0.16"></path><path d="M395.99 343.22Q402.25 350.66 408.49 358.64 414.72 367.06 420.95 375.82 417.56 385.27 414.61 394.73 407.04 409.1 393.58 414.65 377.64 412.86 362.31 403.7 352.07 391.16 351.28 375.01 353.8 365.84 356.7 356.68 366.33 352.27 376.09 348.59 390.98 344.41 395.99 343.22" stroke-dasharray="11 5" transform="rotate(92.92, 400, 400)" opacity="0.13"></path><path d="M391.11 355.54Q399.54 365.66 407.99 376.71 404.06 389.2 401.04 401.7 389.47 402.87 378.24 404.84 368.57 395.59 359.12 387.67 361.84 375.43 365.38 363.2 384.61 357.16 391.11 355.54" stroke-dasharray="10 8" transform="rotate(96.96, 400, 400)" opacity="0.09"></path></g></svg>